<mxfile host="65bd71144e">
    <diagram name="Página-1" id="EIauQohw6qzDTarmpEq7">
        <mxGraphModel dx="1670" dy="947" grid="0" gridSize="10" guides="1" tooltips="1" connect="1" arrows="1" fold="1" page="0" pageScale="1" pageWidth="827" pageHeight="1169" math="0" shadow="0">
            <root>
                <mxCell id="0"/>
                <mxCell id="1" parent="0"/>
                <mxCell id="5EsUXz_L_WnI6JZiVOnS-6" value="BTN LIGAR PRESSIONADO" style="edgeStyle=orthogonalEdgeStyle;rounded=1;orthogonalLoop=1;jettySize=auto;html=1;align=center;" parent="1" source="5EsUXz_L_WnI6JZiVOnS-1" target="5EsUXz_L_WnI6JZiVOnS-2" edge="1">
                    <mxGeometry relative="1" as="geometry"/>
                </mxCell>
                <mxCell id="5EsUXz_L_WnI6JZiVOnS-1" value="ESPERA" style="ellipse;html=1;align=center;whiteSpace=wrap;rounded=1;" parent="1" vertex="1">
                    <mxGeometry x="30" y="130" width="120" height="80" as="geometry"/>
                </mxCell>
                <mxCell id="5EsUXz_L_WnI6JZiVOnS-7" value="SENSOR 1 ATIVADO" style="edgeStyle=orthogonalEdgeStyle;rounded=1;orthogonalLoop=1;jettySize=auto;html=1;align=center;" parent="1" source="5EsUXz_L_WnI6JZiVOnS-2" target="5EsUXz_L_WnI6JZiVOnS-4" edge="1">
                    <mxGeometry relative="1" as="geometry"/>
                </mxCell>
                <mxCell id="5EsUXz_L_WnI6JZiVOnS-13" style="edgeStyle=orthogonalEdgeStyle;rounded=1;orthogonalLoop=1;jettySize=auto;html=1;" parent="1" source="5EsUXz_L_WnI6JZiVOnS-2" edge="1">
                    <mxGeometry relative="1" as="geometry">
                        <mxPoint x="414" y="50" as="targetPoint"/>
                    </mxGeometry>
                </mxCell>
                <mxCell id="5EsUXz_L_WnI6JZiVOnS-2" value="TRANSPORTE 1" style="ellipse;html=1;align=center;whiteSpace=wrap;rounded=1;" parent="1" vertex="1">
                    <mxGeometry x="354" y="130" width="120" height="80" as="geometry"/>
                </mxCell>
                <mxCell id="5EsUXz_L_WnI6JZiVOnS-9" value="SENSOR 3 ATIVADO" style="edgeStyle=orthogonalEdgeStyle;rounded=1;orthogonalLoop=1;jettySize=auto;html=1;align=center;" parent="1" source="5EsUXz_L_WnI6JZiVOnS-3" target="5EsUXz_L_WnI6JZiVOnS-5" edge="1">
                    <mxGeometry x="-0.25" y="10" relative="1" as="geometry">
                        <Array as="points">
                            <mxPoint x="790" y="460"/>
                            <mxPoint x="790" y="460"/>
                        </Array>
                        <mxPoint as="offset"/>
                    </mxGeometry>
                </mxCell>
                <mxCell id="5EsUXz_L_WnI6JZiVOnS-10" value="SENSOR 4 ATIVADO" style="edgeStyle=orthogonalEdgeStyle;rounded=1;orthogonalLoop=1;jettySize=auto;html=1;" parent="1" source="5EsUXz_L_WnI6JZiVOnS-3" target="5EsUXz_L_WnI6JZiVOnS-1" edge="1">
                    <mxGeometry relative="1" as="geometry"/>
                </mxCell>
                <mxCell id="5EsUXz_L_WnI6JZiVOnS-15" style="edgeStyle=orthogonalEdgeStyle;rounded=1;orthogonalLoop=1;jettySize=auto;html=1;" parent="1" source="5EsUXz_L_WnI6JZiVOnS-3" edge="1">
                    <mxGeometry relative="1" as="geometry">
                        <mxPoint x="880" y="370" as="targetPoint"/>
                    </mxGeometry>
                </mxCell>
                <mxCell id="5EsUXz_L_WnI6JZiVOnS-3" value="TRANSPORTE 2" style="ellipse;html=1;align=center;whiteSpace=wrap;rounded=1;" parent="1" vertex="1">
                    <mxGeometry x="680" y="330" width="120" height="80" as="geometry"/>
                </mxCell>
                <mxCell id="5EsUXz_L_WnI6JZiVOnS-8" value="SENSOR 2 ATIVADO" style="edgeStyle=orthogonalEdgeStyle;rounded=1;orthogonalLoop=1;jettySize=auto;html=1;align=center;" parent="1" source="5EsUXz_L_WnI6JZiVOnS-4" target="5EsUXz_L_WnI6JZiVOnS-3" edge="1">
                    <mxGeometry relative="1" as="geometry"/>
                </mxCell>
                <mxCell id="5EsUXz_L_WnI6JZiVOnS-14" style="edgeStyle=orthogonalEdgeStyle;rounded=1;orthogonalLoop=1;jettySize=auto;html=1;" parent="1" source="5EsUXz_L_WnI6JZiVOnS-4" edge="1">
                    <mxGeometry relative="1" as="geometry">
                        <mxPoint x="740" y="50" as="targetPoint"/>
                    </mxGeometry>
                </mxCell>
                <mxCell id="5EsUXz_L_WnI6JZiVOnS-4" value="ELEVADOR" style="ellipse;html=1;align=center;whiteSpace=wrap;rounded=1;" parent="1" vertex="1">
                    <mxGeometry x="680" y="140" width="120" height="80" as="geometry"/>
                </mxCell>
                <mxCell id="5EsUXz_L_WnI6JZiVOnS-11" value="TEMPO 3s&lt;br&gt;EXPIRADO" style="edgeStyle=orthogonalEdgeStyle;rounded=1;orthogonalLoop=1;jettySize=auto;html=1;" parent="1" source="5EsUXz_L_WnI6JZiVOnS-5" target="5EsUXz_L_WnI6JZiVOnS-3" edge="1">
                    <mxGeometry relative="1" as="geometry">
                        <mxPoint x="650" y="410" as="targetPoint"/>
                        <Array as="points">
                            <mxPoint x="650" y="530"/>
                            <mxPoint x="650" y="410"/>
                        </Array>
                    </mxGeometry>
                </mxCell>
                <mxCell id="5EsUXz_L_WnI6JZiVOnS-12" value="BOTÃO DESLIGA PRESSIONADO" style="edgeStyle=orthogonalEdgeStyle;rounded=1;orthogonalLoop=1;jettySize=auto;html=1;entryX=0.5;entryY=0;entryDx=0;entryDy=0;" parent="1" source="5EsUXz_L_WnI6JZiVOnS-5" target="5EsUXz_L_WnI6JZiVOnS-1" edge="1">
                    <mxGeometry x="0.2587" y="-10" relative="1" as="geometry">
                        <mxPoint x="850" y="50" as="targetPoint"/>
                        <Array as="points">
                            <mxPoint x="880" y="530"/>
                            <mxPoint x="880" y="50"/>
                            <mxPoint x="90" y="50"/>
                        </Array>
                        <mxPoint as="offset"/>
                    </mxGeometry>
                </mxCell>
                <mxCell id="5EsUXz_L_WnI6JZiVOnS-5" value="VERIFICAÇÃO" style="ellipse;html=1;align=center;whiteSpace=wrap;rounded=1;" parent="1" vertex="1">
                    <mxGeometry x="680" y="490" width="120" height="80" as="geometry"/>
                </mxCell>
                <mxCell id="23" value="" style="edgeStyle=orthogonalEdgeStyle;rounded=1;orthogonalLoop=1;jettySize=auto;html=1;fontSize=12;startArrow=none;startFill=0;endArrow=classic;endFill=1;" edge="1" parent="1" source="24" target="34">
                    <mxGeometry relative="1" as="geometry"/>
                </mxCell>
                <mxCell id="24" value="Início" style="strokeWidth=2;html=1;shape=mxgraph.flowchart.start_1;whiteSpace=wrap;rounded=1;" vertex="1" parent="1">
                    <mxGeometry x="220" y="522" width="100" height="60" as="geometry"/>
                </mxCell>
                <mxCell id="25" value="" style="edgeStyle=orthogonalEdgeStyle;rounded=1;orthogonalLoop=1;jettySize=auto;html=1;startArrow=none;startFill=0;endArrow=classic;endFill=1;" edge="1" parent="1" source="26" target="28">
                    <mxGeometry relative="1" as="geometry"/>
                </mxCell>
                <mxCell id="44" value="Não" style="edgeStyle=none;html=1;" edge="1" parent="1" source="26" target="43">
                    <mxGeometry relative="1" as="geometry"/>
                </mxCell>
                <mxCell id="26" value="Caso&lt;br&gt;Espera" style="strokeWidth=2;html=1;shape=mxgraph.flowchart.decision;whiteSpace=wrap;rounded=1;" vertex="1" parent="1">
                    <mxGeometry x="220" y="867" width="100" height="100" as="geometry"/>
                </mxCell>
                <mxCell id="27" value="" style="edgeStyle=orthogonalEdgeStyle;rounded=1;orthogonalLoop=1;jettySize=auto;html=1;fontSize=12;startArrow=none;startFill=0;endArrow=classic;endFill=1;" edge="1" parent="1" source="28" target="29">
                    <mxGeometry relative="1" as="geometry"/>
                </mxCell>
                <mxCell id="64" value="Não" style="edgeStyle=none;html=1;" edge="1" parent="1" source="28">
                    <mxGeometry x="-0.8585" y="26" relative="1" as="geometry">
                        <mxPoint x="674" y="766" as="targetPoint"/>
                        <Array as="points">
                            <mxPoint x="674" y="914"/>
                        </Array>
                        <mxPoint as="offset"/>
                    </mxGeometry>
                </mxCell>
                <mxCell id="28" value="&lt;font style=&quot;font-size: 12px;&quot;&gt;Botão Liga está Pressionado?&lt;/font&gt;" style="strokeWidth=2;html=1;shape=mxgraph.flowchart.decision;whiteSpace=wrap;fontSize=12;rounded=1;" vertex="1" parent="1">
                    <mxGeometry x="412" y="857" width="130" height="120" as="geometry"/>
                </mxCell>
                <mxCell id="109" value="" style="edgeStyle=none;rounded=1;html=1;" edge="1" parent="1" source="29" target="108">
                    <mxGeometry relative="1" as="geometry"/>
                </mxCell>
                <mxCell id="29" value="Estado = Transporte1" style="rounded=1;whiteSpace=wrap;html=1;absoluteArcSize=1;arcSize=14;strokeWidth=2;" vertex="1" parent="1">
                    <mxGeometry x="413.25" y="1017" width="127.5" height="40" as="geometry"/>
                </mxCell>
                <mxCell id="30" value="Sim" style="text;html=1;resizable=0;autosize=1;align=center;verticalAlign=middle;points=[];fillColor=none;strokeColor=none;rounded=1;fontSize=12;" vertex="1" parent="1">
                    <mxGeometry x="349" y="907" width="40" height="20" as="geometry"/>
                </mxCell>
                <mxCell id="31" value="Sim" style="text;html=1;resizable=0;autosize=1;align=center;verticalAlign=middle;points=[];fillColor=none;strokeColor=none;rounded=1;fontSize=12;" vertex="1" parent="1">
                    <mxGeometry x="470" y="987" width="40" height="20" as="geometry"/>
                </mxCell>
                <mxCell id="33" value="" style="edgeStyle=orthogonalEdgeStyle;rounded=1;orthogonalLoop=1;jettySize=auto;html=1;fontSize=12;startArrow=none;startFill=0;endArrow=classic;endFill=1;" edge="1" parent="1" source="34" target="36">
                    <mxGeometry relative="1" as="geometry"/>
                </mxCell>
                <mxCell id="34" value="Estado = Espera" style="whiteSpace=wrap;html=1;strokeWidth=2;rounded=1;" vertex="1" parent="1">
                    <mxGeometry x="210" y="631" width="120" height="60" as="geometry"/>
                </mxCell>
                <mxCell id="35" value="" style="edgeStyle=orthogonalEdgeStyle;rounded=1;orthogonalLoop=1;jettySize=auto;html=1;fontSize=12;startArrow=none;startFill=0;endArrow=classic;endFill=1;" edge="1" parent="1" source="36" target="26">
                    <mxGeometry relative="1" as="geometry"/>
                </mxCell>
                <mxCell id="36" value="Switch&lt;br&gt;Estado" style="whiteSpace=wrap;html=1;strokeWidth=2;rounded=1;" vertex="1" parent="1">
                    <mxGeometry x="210" y="740" width="120" height="60" as="geometry"/>
                </mxCell>
                <mxCell id="46" value="Não" style="edgeStyle=none;html=1;" edge="1" parent="1" source="43" target="45">
                    <mxGeometry relative="1" as="geometry"/>
                </mxCell>
                <mxCell id="67" value="Sim" style="edgeStyle=none;rounded=1;html=1;" edge="1" parent="1" source="43" target="66">
                    <mxGeometry relative="1" as="geometry"/>
                </mxCell>
                <mxCell id="43" value="Caso&lt;br&gt;Transporte1" style="strokeWidth=2;html=1;shape=mxgraph.flowchart.decision;whiteSpace=wrap;rounded=1;" vertex="1" parent="1">
                    <mxGeometry x="220" y="1135" width="100" height="100" as="geometry"/>
                </mxCell>
                <mxCell id="48" value="Não" style="edgeStyle=none;html=1;" edge="1" parent="1" source="45" target="47">
                    <mxGeometry relative="1" as="geometry"/>
                </mxCell>
                <mxCell id="74" style="edgeStyle=none;rounded=1;html=1;" edge="1" parent="1" source="45" target="73">
                    <mxGeometry relative="1" as="geometry"/>
                </mxCell>
                <mxCell id="45" value="Caso&lt;br&gt;Elevador" style="strokeWidth=2;html=1;shape=mxgraph.flowchart.decision;whiteSpace=wrap;rounded=1;" vertex="1" parent="1">
                    <mxGeometry x="220" y="1404" width="100" height="100" as="geometry"/>
                </mxCell>
                <mxCell id="50" value="Não" style="edgeStyle=none;html=1;" edge="1" parent="1" source="47" target="49">
                    <mxGeometry relative="1" as="geometry"/>
                </mxCell>
                <mxCell id="80" value="" style="edgeStyle=none;rounded=1;html=1;" edge="1" parent="1" source="47" target="79">
                    <mxGeometry relative="1" as="geometry"/>
                </mxCell>
                <mxCell id="47" value="Caso&lt;br&gt;Transporte2" style="strokeWidth=2;html=1;shape=mxgraph.flowchart.decision;whiteSpace=wrap;rounded=1;" vertex="1" parent="1">
                    <mxGeometry x="220" y="1672" width="100" height="100" as="geometry"/>
                </mxCell>
                <mxCell id="57" value="Não" style="edgeStyle=orthogonalEdgeStyle;html=1;" edge="1" parent="1" source="49" target="134">
                    <mxGeometry x="-0.9759" y="19" relative="1" as="geometry">
                        <mxPoint x="616" y="769" as="targetPoint"/>
                        <Array as="points">
                            <mxPoint x="277" y="2139"/>
                            <mxPoint x="1095" y="2139"/>
                            <mxPoint x="1095" y="770"/>
                        </Array>
                        <mxPoint as="offset"/>
                    </mxGeometry>
                </mxCell>
                <mxCell id="133" style="edgeStyle=none;rounded=1;html=1;" edge="1" parent="1" source="49" target="88">
                    <mxGeometry relative="1" as="geometry"/>
                </mxCell>
                <mxCell id="49" value="Caso&lt;br&gt;Verificação" style="strokeWidth=2;html=1;shape=mxgraph.flowchart.decision;whiteSpace=wrap;rounded=1;" vertex="1" parent="1">
                    <mxGeometry x="220" y="1940" width="100" height="100" as="geometry"/>
                </mxCell>
                <mxCell id="69" value="Sim" style="edgeStyle=none;rounded=1;html=1;" edge="1" parent="1" source="66" target="68">
                    <mxGeometry relative="1" as="geometry"/>
                </mxCell>
                <mxCell id="70" value="Não" style="edgeStyle=none;rounded=1;html=1;" edge="1" parent="1" source="66">
                    <mxGeometry x="-0.9061" y="21" relative="1" as="geometry">
                        <mxPoint x="1097" y="1185" as="targetPoint"/>
                        <mxPoint as="offset"/>
                    </mxGeometry>
                </mxCell>
                <mxCell id="66" value="Sensor 1 &lt;br&gt;ativado?" style="strokeWidth=2;html=1;shape=mxgraph.flowchart.decision;whiteSpace=wrap;rounded=1;" vertex="1" parent="1">
                    <mxGeometry x="443" y="1135" width="100" height="100" as="geometry"/>
                </mxCell>
                <mxCell id="102" value="" style="edgeStyle=none;rounded=1;html=1;" edge="1" parent="1" source="68" target="101">
                    <mxGeometry relative="1" as="geometry"/>
                </mxCell>
                <mxCell id="68" value="Estado = Elevador" style="rounded=1;whiteSpace=wrap;html=1;absoluteArcSize=1;arcSize=14;strokeWidth=2;" vertex="1" parent="1">
                    <mxGeometry x="429.2500000000002" y="1297" width="127.5" height="40" as="geometry"/>
                </mxCell>
                <mxCell id="75" value="Não" style="edgeStyle=none;rounded=1;html=1;" edge="1" parent="1" source="73">
                    <mxGeometry x="-0.9637" y="26" relative="1" as="geometry">
                        <mxPoint x="1094" y="1454" as="targetPoint"/>
                        <mxPoint as="offset"/>
                    </mxGeometry>
                </mxCell>
                <mxCell id="77" value="Sim" style="edgeStyle=none;rounded=1;html=1;" edge="1" parent="1" source="73" target="76">
                    <mxGeometry relative="1" as="geometry"/>
                </mxCell>
                <mxCell id="73" value="Sensor 2&lt;br&gt;ativado?" style="strokeWidth=2;html=1;shape=mxgraph.flowchart.decision;whiteSpace=wrap;rounded=1;" vertex="1" parent="1">
                    <mxGeometry x="443" y="1404" width="100" height="100" as="geometry"/>
                </mxCell>
                <mxCell id="112" value="" style="edgeStyle=none;rounded=1;html=1;" edge="1" parent="1" source="76" target="111">
                    <mxGeometry relative="1" as="geometry"/>
                </mxCell>
                <mxCell id="76" value="Estado = Transporte2" style="rounded=1;whiteSpace=wrap;html=1;absoluteArcSize=1;arcSize=14;strokeWidth=2;" vertex="1" parent="1">
                    <mxGeometry x="429.2500000000002" y="1563" width="127.5" height="40" as="geometry"/>
                </mxCell>
                <mxCell id="81" value="Não" style="edgeStyle=none;rounded=1;html=1;" edge="1" parent="1" source="79">
                    <mxGeometry x="-0.9541" y="29" relative="1" as="geometry">
                        <mxPoint x="1094" y="1722" as="targetPoint"/>
                        <mxPoint as="offset"/>
                    </mxGeometry>
                </mxCell>
                <mxCell id="83" value="Sim" style="edgeStyle=none;rounded=1;html=1;" edge="1" parent="1" source="79" target="82">
                    <mxGeometry relative="1" as="geometry"/>
                </mxCell>
                <mxCell id="79" value="Sensor 3&lt;br&gt;ativado?" style="strokeWidth=2;html=1;shape=mxgraph.flowchart.decision;whiteSpace=wrap;rounded=1;" vertex="1" parent="1">
                    <mxGeometry x="443" y="1672" width="100" height="100" as="geometry"/>
                </mxCell>
                <mxCell id="131" style="edgeStyle=none;rounded=1;html=1;" edge="1" parent="1" source="82" target="85">
                    <mxGeometry relative="1" as="geometry"/>
                </mxCell>
                <mxCell id="82" value="Estado = Verificação" style="rounded=1;whiteSpace=wrap;html=1;absoluteArcSize=1;arcSize=14;strokeWidth=2;" vertex="1" parent="1">
                    <mxGeometry x="429.2500000000002" y="1821" width="127.5" height="40" as="geometry"/>
                </mxCell>
                <mxCell id="126" style="edgeStyle=none;rounded=1;html=1;" edge="1" parent="1" source="85" target="125">
                    <mxGeometry relative="1" as="geometry"/>
                </mxCell>
                <mxCell id="128" value="" style="edgeStyle=none;rounded=1;html=1;" edge="1" parent="1" source="85" target="127">
                    <mxGeometry relative="1" as="geometry"/>
                </mxCell>
                <mxCell id="85" value="Desligar o Motor2 por 3 segundos" style="rounded=1;whiteSpace=wrap;html=1;absoluteArcSize=1;arcSize=14;strokeWidth=2;" vertex="1" parent="1">
                    <mxGeometry x="598" y="1821" width="127.5" height="40" as="geometry"/>
                </mxCell>
                <mxCell id="130" style="edgeStyle=none;rounded=1;html=1;" edge="1" parent="1" source="86">
                    <mxGeometry relative="1" as="geometry">
                        <mxPoint x="1094.0526058799342" y="1841" as="targetPoint"/>
                    </mxGeometry>
                </mxCell>
                <mxCell id="86" value="Ligar o Motor2" style="rounded=1;whiteSpace=wrap;html=1;absoluteArcSize=1;arcSize=14;strokeWidth=2;" vertex="1" parent="1">
                    <mxGeometry x="936" y="1821" width="127.5" height="40" as="geometry"/>
                </mxCell>
                <mxCell id="92" value="Não" style="edgeStyle=none;rounded=1;html=1;" edge="1" parent="1" source="88" target="91">
                    <mxGeometry relative="1" as="geometry"/>
                </mxCell>
                <mxCell id="98" value="Sim" style="edgeStyle=none;rounded=1;html=1;" edge="1" parent="1" source="88" target="94">
                    <mxGeometry relative="1" as="geometry"/>
                </mxCell>
                <mxCell id="88" value="Sensor 4&lt;br&gt;ativado?" style="strokeWidth=2;html=1;shape=mxgraph.flowchart.decision;whiteSpace=wrap;rounded=1;" vertex="1" parent="1">
                    <mxGeometry x="503.75" y="1940" width="100" height="100" as="geometry"/>
                </mxCell>
                <mxCell id="100" style="edgeStyle=none;rounded=1;html=1;" edge="1" parent="1" source="91">
                    <mxGeometry relative="1" as="geometry">
                        <mxPoint x="1101" y="2102" as="targetPoint"/>
                    </mxGeometry>
                </mxCell>
                <mxCell id="91" value="Estado = Verificação" style="rounded=1;whiteSpace=wrap;html=1;absoluteArcSize=1;arcSize=14;strokeWidth=2;" vertex="1" parent="1">
                    <mxGeometry x="490.0000000000002" y="2082" width="127.5" height="40" as="geometry"/>
                </mxCell>
                <mxCell id="99" style="edgeStyle=none;rounded=1;html=1;" edge="1" parent="1" source="94">
                    <mxGeometry relative="1" as="geometry">
                        <mxPoint x="1094.8824103860293" y="1992" as="targetPoint"/>
                    </mxGeometry>
                </mxCell>
                <mxCell id="94" value="Estado = Espera" style="whiteSpace=wrap;html=1;strokeWidth=2;rounded=1;" vertex="1" parent="1">
                    <mxGeometry x="673.75" y="1960" width="120" height="60" as="geometry"/>
                </mxCell>
                <mxCell id="106" value="" style="edgeStyle=none;rounded=1;html=1;" edge="1" parent="1" source="101" target="105">
                    <mxGeometry relative="1" as="geometry"/>
                </mxCell>
                <mxCell id="101" value="Motor1 = Desligado" style="rounded=1;whiteSpace=wrap;html=1;absoluteArcSize=1;arcSize=14;strokeWidth=2;" vertex="1" parent="1">
                    <mxGeometry x="636.7500000000002" y="1297" width="127.5" height="40" as="geometry"/>
                </mxCell>
                <mxCell id="107" style="edgeStyle=none;rounded=1;html=1;" edge="1" parent="1" source="105">
                    <mxGeometry relative="1" as="geometry">
                        <mxPoint x="1092" y="1317" as="targetPoint"/>
                    </mxGeometry>
                </mxCell>
                <mxCell id="105" value="Esperar 3 segundos e ligar MotorElevador" style="rounded=1;whiteSpace=wrap;html=1;absoluteArcSize=1;arcSize=14;strokeWidth=2;" vertex="1" parent="1">
                    <mxGeometry x="844.2500000000002" y="1297" width="127.5" height="40" as="geometry"/>
                </mxCell>
                <mxCell id="110" style="edgeStyle=none;rounded=1;html=1;" edge="1" parent="1" source="108">
                    <mxGeometry relative="1" as="geometry">
                        <mxPoint x="676.5" y="906.0000610351562" as="targetPoint"/>
                    </mxGeometry>
                </mxCell>
                <mxCell id="108" value="Motor1 = Ligado" style="rounded=1;whiteSpace=wrap;html=1;absoluteArcSize=1;arcSize=14;strokeWidth=2;" vertex="1" parent="1">
                    <mxGeometry x="612.75" y="1017" width="127.5" height="40" as="geometry"/>
                </mxCell>
                <mxCell id="114" value="" style="edgeStyle=none;rounded=1;html=1;" edge="1" parent="1" source="111" target="113">
                    <mxGeometry relative="1" as="geometry"/>
                </mxCell>
                <mxCell id="111" value="MotorElevador = Desligado" style="rounded=1;whiteSpace=wrap;html=1;absoluteArcSize=1;arcSize=14;strokeWidth=2;" vertex="1" parent="1">
                    <mxGeometry x="636.7500000000002" y="1563" width="127.5" height="40" as="geometry"/>
                </mxCell>
                <mxCell id="115" style="edgeStyle=none;rounded=1;html=1;" edge="1" parent="1" source="113">
                    <mxGeometry relative="1" as="geometry">
                        <mxPoint x="1092" y="1583" as="targetPoint"/>
                    </mxGeometry>
                </mxCell>
                <mxCell id="113" value="Motor2 = Ligado" style="rounded=1;whiteSpace=wrap;html=1;absoluteArcSize=1;arcSize=14;strokeWidth=2;" vertex="1" parent="1">
                    <mxGeometry x="844.2500000000002" y="1563" width="127.5" height="40" as="geometry"/>
                </mxCell>
                <mxCell id="132" style="edgeStyle=none;rounded=1;html=1;" edge="1" parent="1" source="125" target="85">
                    <mxGeometry relative="1" as="geometry"/>
                </mxCell>
                <mxCell id="125" value="Piscar lâmpada em 2Hz" style="rounded=1;whiteSpace=wrap;html=1;absoluteArcSize=1;arcSize=14;strokeWidth=2;" vertex="1" parent="1">
                    <mxGeometry x="598.0000000000002" y="1891" width="127.5" height="40" as="geometry"/>
                </mxCell>
                <mxCell id="129" style="edgeStyle=none;rounded=1;html=1;" edge="1" parent="1" source="127" target="86">
                    <mxGeometry relative="1" as="geometry"/>
                </mxCell>
                <mxCell id="127" value="Apagar lâmpada" style="rounded=1;whiteSpace=wrap;html=1;absoluteArcSize=1;arcSize=14;strokeWidth=2;" vertex="1" parent="1">
                    <mxGeometry x="767" y="1821" width="127.5" height="40" as="geometry"/>
                </mxCell>
                <mxCell id="135" value="Não" style="edgeStyle=none;rounded=1;html=1;" edge="1" parent="1" source="134" target="36">
                    <mxGeometry relative="1" as="geometry"/>
                </mxCell>
                <mxCell id="136" value="Sim" style="edgeStyle=none;rounded=1;html=1;" edge="1" parent="1" source="134" target="34">
                    <mxGeometry relative="1" as="geometry">
                        <mxPoint x="477" y="638.3333892822266" as="targetPoint"/>
                        <Array as="points">
                            <mxPoint x="477" y="664"/>
                        </Array>
                    </mxGeometry>
                </mxCell>
                <mxCell id="134" value="Botão Desliga&lt;br&gt;pressionado?" style="strokeWidth=2;html=1;shape=mxgraph.flowchart.decision;whiteSpace=wrap;rounded=1;" vertex="1" parent="1">
                    <mxGeometry x="427" y="720" width="100" height="100" as="geometry"/>
                </mxCell>
            </root>
        </mxGraphModel>
    </diagram>
</mxfile>